<?xml version="1.0" encoding="UTF-8" standalone="no"?>
<!-- Created with Inkscape (http://www.inkscape.org/) -->

<svg
   version="1.1"
   id="svg1"
   width="755.90601"
   height="755.90552"
   viewBox="0 0 755.90601 755.90552"
   sodipodi:docname="profile_light.svg"
   inkscape:version="1.4 (e7c3feb100, 2024-10-09)"
   xmlns:inkscape="http://www.inkscape.org/namespaces/inkscape"
   xmlns:sodipodi="http://sodipodi.sourceforge.net/DTD/sodipodi-0.dtd"
   xmlns="http://www.w3.org/2000/svg"
   xmlns:svg="http://www.w3.org/2000/svg">
  <defs
     id="defs1">
    <inkscape:path-effect
       effect="powermask"
       id="path-effect9"
       is_visible="true"
       lpeversion="1"
       uri="#mask-powermask-path-effect9"
       invert="false"
       hide_mask="false"
       background="true"
       background_color="#ffffffff" />
    <clipPath
       clipPathUnits="userSpaceOnUse"
       id="clipPath3">
      <path
         d="m 0,0.028 h 566.9 v 566.9 H 0 Z"
         clip-rule="evenodd"
         id="path3" />
    </clipPath>
    <mask
       maskUnits="userSpaceOnUse"
       id="mask-powermask-path-effect9">
      <path
         id="mask-powermask-path-effect9_box"
         style="fill:#ffffff;fill-opacity:1"
         d="M 55.026665,55.026861 H 700.91732 V 700.91751 H 55.026665 Z" />
      <g
         id="g9"
         transform="matrix(1.3333333,0,0,1.3333333,257.99067,559.25751)"
         style="fill:#000000">
        <path
           style="fill:#000000;stroke-miterlimit:10"
           d="m 186.39861,-261.99804 c -29.99978,0 -48.39964,12.39991 -65.99951,30.79977 -116.3991299,9.19993 -157.598822,145.59891 -157.598822,186.398605 0,29.999776 9.999925,47.5996441 27.5997938,47.5996441 57.5995692,0 75.5994352,-159.5988091 136.7989782,-230.7982791 22.39983,-1.99998 55.99958,7.19995 55.99958,50.79962 0,42.39969 -41.99969,82.399389 -85.59936,95.199293 -1.999985,-11.199916 -3.99997,-18.799863 -8.799934,-18.799863 -15.199886,0 -25.199812,11.999914 -25.199812,17.599872 0,3.99997 2.79998,7.99994 8.399938,7.99994 5.999955,0 11.599913,-0.399997 17.599868,-1.599988 3.599973,27.999791 4.799964,75.99943198 24.39982,75.99943198 25.19981,0 51.99961,-41.19969198 51.99961,-53.59959898 0,-2.399982 -0.8,-3.599973 -2.79998,-3.599973 -6.39995,20.799844 -34.39974,52.7996049 -49.99963,52.7996049 -9.99992,0 -10.39992,-45.1996619 -14.799886,-73.1994529 47.999646,-11.599913 94.399296,-51.599616 94.399296,-98.799266 0,-25.9998 -14.39989,-56.39957 -61.99954,-54.79959 13.1999,-18.39986 32.39976,-25.5998 53.1996,-25.5998 5.19997,0 11.59992,1.19999 13.9999,3.99997 0.79999,0 1.59999,-1.19999 1.59999,-2.39999 0,-2.39998 -3.99997,-5.99995 -13.1999,-5.99995 z M -9.1999312,-1.199991 c -15.9998808,0 -23.9998208,-15.199886 -23.9998208,-42.79968 0,-41.199692 41.9996862,-171.998719 150.398872,-183.198629 C 55.999581,-156.39883 33.199752,-1.199991 -9.1999312,-1.199991 Z M 71.199468,-77.999417 c -3.599973,0 -4.799964,-2.799979 -4.799964,-4.799964 0,-4.799964 9.599928,-13.999895 15.99988,-13.999895 3.99997,0 5.199961,6.799949 6.799949,16.799874 -6.399952,1.199991 -11.99991,1.999985 -17.999865,1.999985 z"
           id="path8" />
        <path
           style="fill:#000000;stroke-miterlimit:10"
           d="m 186.39844,-268.66406 c -30.82374,0 -51.28415,13.04277 -69.04688,31.10937 -59.320822,5.65531 -99.878139,43.2907 -125.0781225,84.20899 -25.5609795,41.50444 -36.1406245,85.903072 -36.1406245,108.546872 0,15.74061 2.499968,28.682438 8.091796,38.3789061 5.591828,9.6964679 15.153681,15.8867188 26.1757816,15.8867188 17.4785192,0 31.3092754,-12.1013754 42.6113284,-29.0117189 9.865784,-14.761371 18.439514,-33.878017 26.925781,-54.773437 0.294969,0.390322 0.547015,0.801907 0.888672,1.167968 2.660509,2.850545 6.786587,4.617188 11.173828,4.617188 3.919706,0 7.796402,-0.269708 11.710937,-0.708984 1.409469,12.879472 2.685119,28.372621 5.558594,42.291015 1.675681,8.116578 3.824994,15.542967 7.419922,21.6113283 C 100.28438,0.7285171 106.37902,5.8671875 114,5.8671875 c 16.23297,0 30.09697,-11.9477256 40.57617,-24.5546875 5.2396,-6.303481 9.60476,-12.950989 12.75977,-19.037109 3.15501,-6.086121 5.33008,-11.174431 5.33008,-16.675782 0,-1.940718 -0.18331,-4.297791 -1.98438,-6.699218 -1.80107,-2.401428 -5.14913,-3.566407 -7.48242,-3.566407 h -4.92383 l -1.44922,4.705079 c -2.67893,8.706541 -10.87859,21.640518 -20.08398,31.648437 -4.6027,5.003959 -9.4606,9.341658 -13.78321,12.263672 -3.46798,2.344303 -6.28645,3.376873 -8.23046,3.789062 -0.32528,-0.604715 -0.65838,-1.128386 -1.09961,-2.492187 -1.25129,-3.867609 -2.38999,-10.164927 -3.31836,-17.396484 -1.62447,-12.653773 -2.84065,-27.941523 -4.6211,-41.365235 23.18358,-6.645877 45.45371,-19.294776 62.58985,-36.187498 18.54515,-18.28173 31.18554,-41.71372 31.18554,-67.49805 0,-14.23064 -3.907,-29.99185 -14.85351,-42.19922 -8.66981,-9.66842 -21.74599,-16.55634 -39.31836,-18.61523 10.72832,-9.19538 23.92901,-12.91797 38.70508,-12.91797 2.08718,0 4.55084,0.27169 6.40429,0.74414 1.85346,0.47245 2.93446,1.39359 2.53516,0.92773 l 1.99414,2.32813 h 3.06641 c 3.73326,0 5.58794,-2.13094 6.64648,-3.71875 1.05855,-1.58781 1.6211,-3.26621 1.62109,-5.34766 10e-6,-4.9036 -3.12211,-7.79722 -6.56835,-9.7207 -3.44625,-1.92348 -7.82932,-2.94531 -13.29883,-2.94531 z m -50.70313,47.16211 c 8.21341,0.41197 17.0867,2.58482 24.19336,7.34375 9.47556,6.34523 16.64258,16.87164 16.64258,36.95898 0,18.99864 -9.53464,38.12963 -24.63086,54.125 -13.39507,14.1929 -31.06831,25.724962 -49.24023,32.365236 -0.61268,-2.657811 -1.31157,-5.143978 -2.24024,-7.414063 -0.876528,-2.142633 -1.946522,-4.199753 -3.804686,-6.044923 -1.858164,-1.84517 -4.857199,-3.29687 -7.816406,-3.29687 -6.816641,0 -12.773912,1.98505 -17.626953,4.81836 16.808188,-43.14124 34.781275,-88.99494 59.365235,-118.76172 1.6991,-0.0685 3.37156,-0.18337 5.1582,-0.0937 z m -34.29687,3.75976 c -25.99081,36.38458 -44.222508,85.67455 -60.656253,127.662112 -9.308512,23.782876 -18.026339,45.222449 -26.68164,60.185547 -4.3276505,7.481549 -8.6550575,13.307138 -12.6601564,16.96289 -4.0050988,3.6557529 -7.3331411,5.0644535 -10.5996094,5.0644535 -5.8888822,0 -9.0502752,-1.9597754 -12.1640622,-7.6035155 -3.113788,-5.64374 -5.169922,-15.373506 -5.169922,-28.529297 0,-18.33453 10.200162,-61.22795 33.5683592,-99.36523 20.7906818,-33.93074 51.4795568,-64.31651 94.3632838,-74.37696 z M 80.527344,-89.304687 c 0.239236,0.785729 0.51626,2.607186 0.769531,3.814453 -2.155041,0.301841 -4.307574,0.469725 -6.371094,0.591797 0.517331,-0.603644 0.892979,-1.165586 1.550781,-1.761719 1.328776,-1.204203 2.838394,-2.055139 4.050782,-2.644531 z"
           id="path9" />
      </g>
    </mask>
    <filter
       id="mask-powermask-path-effect9_inverse"
       inkscape:label="filtermask-powermask-path-effect9"
       style="color-interpolation-filters:sRGB"
       height="100"
       width="100"
       x="-50"
       y="-50">
      <feColorMatrix
         id="mask-powermask-path-effect9_primitive1"
         values="1"
         type="saturate"
         result="fbSourceGraphic" />
      <feColorMatrix
         id="mask-powermask-path-effect9_primitive2"
         values="-1 0 0 0 1 0 -1 0 0 1 0 0 -1 0 1 0 0 0 1 0 "
         in="fbSourceGraphic" />
    </filter>
  </defs>
  <sodipodi:namedview
     id="namedview1"
     pagecolor="#ffffff"
     bordercolor="#000000"
     borderopacity="0.25"
     inkscape:showpageshadow="2"
     inkscape:pageopacity="0.0"
     inkscape:pagecheckerboard="0"
     inkscape:deskcolor="#d1d1d1"
     inkscape:zoom="1.6218958"
     inkscape:cx="377.64448"
     inkscape:cy="377.95276"
     inkscape:window-width="2560"
     inkscape:window-height="1495"
     inkscape:window-x="0"
     inkscape:window-y="0"
     inkscape:window-maximized="1"
     inkscape:current-layer="g1">
    <inkscape:page
       x="0"
       y="0"
       inkscape:label="1"
       id="page1"
       width="755.90601"
       height="755.90552"
       margin="0"
       bleed="0" />
  </sodipodi:namedview>
  <g
     id="g1"
     inkscape:groupmode="layer"
     inkscape:label="1">
    <rect
       style="fill:#ffffff;stroke:none;stroke-width:1.24009"
       id="rect1"
       width="757.90601"
       height="757.90601"
       x="-1"
       y="-1" />
    <g
       id="g3"
       mask="url(#mask-powermask-path-effect9)"
       inkscape:path-effect="#path-effect9">
      <path
         id="path4"
         d="m 524.438,283.436 c 0,-42.293 -11.14,-83.849 -32.287,-120.472 C 471.005,126.34 440.589,95.924 403.965,74.778 367.342,53.631 325.786,42.491 283.493,42.491 c -42.321,0 -83.877,11.14 -120.501,32.287 C 126.369,95.924 95.953,126.34 74.806,162.964 53.66,199.587 42.52,241.143 42.52,283.436 c 0,42.321 11.14,83.877 32.286,120.501 21.147,36.623 51.563,67.039 88.186,88.186 36.624,21.146 78.18,32.286 120.473,32.286 42.321,0 83.877,-11.14 120.5,-32.286 36.624,-21.147 67.04,-51.563 88.186,-88.186 21.147,-36.624 32.287,-78.18 32.287,-120.473 z"
         style="fill:#ff0000;fill-opacity:1;fill-rule:evenodd;stroke:#ff0000;stroke-width:1;stroke-linecap:butt;stroke-linejoin:round;stroke-miterlimit:10;stroke-dasharray:none;stroke-opacity:1"
         transform="matrix(1.3333333,0,0,-1.3333333,0,755.90551)"
         inkscape:original-d="m 524.438,283.436 c 0,-42.293 -11.14,-83.849 -32.287,-120.472 C 471.005,126.34 440.589,95.924 403.965,74.778 367.342,53.631 325.786,42.491 283.493,42.491 c -42.321,0 -83.877,11.14 -120.501,32.287 C 126.369,95.924 95.953,126.34 74.806,162.964 53.66,199.587 42.52,241.143 42.52,283.436 c 0,42.321 11.14,83.877 32.286,120.501 21.147,36.623 51.563,67.039 88.186,88.186 36.624,21.146 78.18,32.286 120.473,32.286 42.321,0 83.877,-11.14 120.5,-32.286 36.624,-21.147 67.04,-51.563 88.186,-88.186 21.147,-36.624 32.287,-78.18 32.287,-120.473 z" />
    </g>
    <g
       id="g5">
      <path
         id="path5"
         d="m 538.611,283.464 c 0,-44.787 -11.792,-88.809 -34.186,-127.587 C 482.031,117.099 449.83,84.898 411.052,62.504 372.274,40.11 328.252,28.318 283.493,28.318 c -44.787,0 -88.81,11.792 -127.587,34.186 -38.778,22.394 -70.98,54.595 -93.374,93.373 -22.393,38.778 -34.186,82.8 -34.186,127.559 0,44.787 11.793,88.81 34.186,127.587 22.394,38.778 54.596,70.98 93.374,93.374 38.777,22.393 82.8,34.186 127.559,34.186 44.787,0 88.809,-11.793 127.587,-34.186 38.778,-22.394 70.979,-54.596 93.373,-93.374 22.394,-38.777 34.186,-82.8 34.186,-127.559 z"
         style="fill:none;stroke:#ff0000;stroke-width:10.0061;stroke-linecap:round;stroke-linejoin:round;stroke-miterlimit:10;stroke-dasharray:20.1123, 19.9122;stroke-dashoffset:0;stroke-opacity:1"
         transform="matrix(1.3333333,0,0,-1.3333333,0,755.90551)" />
    </g>
  </g>
</svg>
